<svg xmlns="http://www.w3.org/2000/svg" width="1080" height="1350" viewBox="0 0 1080 1350">
  <defs>
    <linearGradient id="edge" x1="0" y1="0" x2="1" y2="1">
      <stop offset="0%" stop-color="#0A0A0A"/>
      <stop offset="52%" stop-color="#101114"/>
      <stop offset="100%" stop-color="#07151B"/>
    </linearGradient>
    <radialGradient id="cyan" cx="82%" cy="22%" r="65%">
      <stop offset="0%" stop-color="#00C8FF" stop-opacity="0.28"/>
      <stop offset="40%" stop-color="#00C8FF" stop-opacity="0.08"/>
      <stop offset="100%" stop-color="#00C8FF" stop-opacity="0"/>
    </radialGradient>
    <filter id="glow" x="-50%" y="-50%" width="200%" height="200%">
      <feGaussianBlur stdDeviation="10" result="blur"/>
      <feMerge>
        <feMergeNode in="blur"/>
        <feMergeNode in="SourceGraphic"/>
      </feMerge>
    </filter>
  </defs>
  <rect width="1080" height="1350" fill="url(#edge)"/>
  <rect width="1080" height="1350" fill="url(#cyan)"/>
  <g opacity="0.11" stroke="#F4F5F7" stroke-width="1">
    <path d="M120 160H960M120 320H960M120 480H960M120 640H960M120 800H960M120 960H960M120 1120H960"/>
    <path d="M180 110V1240M340 110V1240M500 110V1240M660 110V1240M820 110V1240"/>
  </g>
  <path d="M860 104C980 176 1036 294 1028 458" fill="none" stroke="#00C8FF" stroke-opacity="0.38" stroke-width="2"/>
  <path d="M146 1012C278 1114 416 1164 560 1160" fill="none" stroke="#FFFFFF" stroke-opacity="0.12" stroke-width="2"/>
  <g font-family="Inter, SF Pro Display, Helvetica Neue, Arial, sans-serif">
    <text x="116" y="196" font-size="32" fill="#9DA3AD" font-weight="600" letter-spacing="6">SILICON VALLEY AI MENTOR</text>
    <g transform="translate(118 584)" font-weight="850" letter-spacing="-8">
      <text x="0" y="0" font-size="196" fill="#FFFFFF">K</text>
      <text x="150" y="-14" font-size="146" fill="#8A8F98">·</text>
      <text x="214" y="0" font-size="196" fill="#00C8FF" filter="url(#glow)">AI</text>
    </g>
    <text x="124" y="678" font-size="39" fill="#F4F5F7" font-weight="650" letter-spacing="1">FROM COMPETITION TO COMPANY</text>
    <g font-size="38" fill="#D7DCE2" font-weight="620">
      <text x="124" y="1048">#青少年AI创业   #爬藤</text>
      <text x="124" y="1114">#硅谷CTO   #凯AI</text>
    </g>
  </g>
  <rect x="70" y="70" width="940" height="1210" rx="32" fill="none" stroke="#FFFFFF" stroke-opacity="0.08" stroke-width="2"/>
</svg>
