<svg xmlns="http://www.w3.org/2000/svg" width="2560" height="1440" viewBox="0 0 2560 1440">
  <defs>
    <linearGradient id="bg" x1="0" y1="0" x2="1" y2="1">
      <stop offset="0%" stop-color="#0A0A0A"/>
      <stop offset="58%" stop-color="#101114"/>
      <stop offset="100%" stop-color="#06171F"/>
    </linearGradient>
    <radialGradient id="rightGlow" cx="77%" cy="44%" r="58%">
      <stop offset="0%" stop-color="#00C8FF" stop-opacity="0.28"/>
      <stop offset="44%" stop-color="#00C8FF" stop-opacity="0.08"/>
      <stop offset="100%" stop-color="#00C8FF" stop-opacity="0"/>
    </radialGradient>
    <filter id="aiGlow" x="-50%" y="-50%" width="200%" height="200%">
      <feGaussianBlur stdDeviation="9" result="blur"/>
      <feMerge>
        <feMergeNode in="blur"/>
        <feMergeNode in="SourceGraphic"/>
      </feMerge>
    </filter>
  </defs>
  <rect width="2560" height="1440" fill="url(#bg)"/>
  <rect width="2560" height="1440" fill="url(#rightGlow)"/>
  <g opacity="0.1" stroke="#F4F5F7" stroke-width="1">
    <path d="M260 220H2300M260 420H2300M260 620H2300M260 820H2300M260 1020H2300M260 1220H2300"/>
    <path d="M420 160V1280M700 160V1280M980 160V1280M1260 160V1280M1540 160V1280M1820 160V1280M2100 160V1280"/>
  </g>
  <g opacity="0.26" stroke="#00C8FF" stroke-width="2" fill="none">
    <path d="M1554 276C1858 256 2098 360 2274 588"/>
    <path d="M1530 1032C1810 1074 2074 1014 2320 852"/>
  </g>
  <g font-family="Inter, SF Pro Display, Helvetica Neue, Arial, sans-serif">
    <text x="320" y="354" font-size="30" fill="#9DA3AD" font-weight="650" letter-spacing="7">VIDEO TITLE SAFE AREA</text>
    <rect x="318" y="408" width="870" height="4" fill="#00C8FF" opacity="0.72"/>
    <rect x="318" y="500" width="770" height="28" rx="14" fill="#F4F5F7" opacity="0.16"/>
    <rect x="318" y="570" width="660" height="28" rx="14" fill="#F4F5F7" opacity="0.1"/>
    <rect x="318" y="640" width="830" height="28" rx="14" fill="#F4F5F7" opacity="0.07"/>
    <g transform="translate(1390 730)" font-weight="850" letter-spacing="-9">
      <text x="0" y="0" font-size="174" fill="#FFFFFF">K</text>
      <text x="132" y="-13" font-size="130" fill="#8A8F98">·</text>
      <text x="190" y="0" font-size="174" fill="#00C8FF" filter="url(#aiGlow)">AI</text>
    </g>
    <text x="1396" y="820" font-size="42" fill="#F4F5F7" font-weight="680" letter-spacing="2">FROM COMPETITION TO COMPANY</text>
    <g transform="translate(2180 1246)" font-weight="800" letter-spacing="-3">
      <text x="0" y="0" font-size="62" fill="#FFFFFF">K</text>
      <text x="48" y="-5" font-size="48" fill="#8A8F98">·</text>
      <text x="70" y="0" font-size="62" fill="#00C8FF">AI</text>
    </g>
  </g>
  <rect x="256" y="154" width="2048" height="1132" rx="36" fill="none" stroke="#FFFFFF" stroke-opacity="0.06" stroke-width="2"/>
</svg>
